<svg width="33" height="32" viewBox="0 0 33 32" fill="none" xmlns="http://www.w3.org/2000/svg">
<path fill-rule="evenodd" clip-rule="evenodd" d="M30.25 16C30.25 23.3637 24.0938 29.3333 16.5 29.3333C8.90608 29.3333 2.75 23.3637 2.75 16C2.75 8.63616 8.90608 2.66663 16.5 2.66663C24.0938 2.66663 30.25 8.63616 30.25 16ZM16.9927 12.5099C15.6553 13.0493 12.9824 14.1657 8.97403 15.8592C8.32312 16.1102 7.98215 16.3558 7.95112 16.5958C7.89866 17.0017 8.42269 17.1614 9.13626 17.379C9.23333 17.4086 9.3339 17.4393 9.437 17.4717C10.139 17.693 11.0834 17.952 11.5744 17.9622C12.0197 17.9716 12.5168 17.7936 13.0655 17.4281C16.8107 14.9766 18.744 13.7376 18.8653 13.7108C18.9509 13.692 19.0696 13.6682 19.15 13.7376C19.2305 13.8069 19.2225 13.9381 19.214 13.9733C19.1621 14.188 17.1051 16.0424 16.0406 17.002C15.7088 17.3012 15.4734 17.5133 15.4253 17.5618C15.3175 17.6704 15.2076 17.773 15.102 17.8717C14.4499 18.4814 13.9607 18.9386 15.1291 19.6853C15.6907 20.0441 16.1399 20.3408 16.5881 20.6368C17.0776 20.9601 17.5659 21.2825 18.1977 21.6841C18.3586 21.7864 18.5123 21.8926 18.6621 21.9961C19.2317 22.39 19.7435 22.7438 20.3758 22.6873C20.7432 22.6546 21.1228 22.3196 21.3155 21.3204C21.7711 18.959 22.6665 13.8426 22.8734 11.7344C22.8916 11.5497 22.8687 11.3133 22.8504 11.2095C22.832 11.1057 22.7938 10.9579 22.6546 10.8484C22.4899 10.7188 22.2357 10.6914 22.1218 10.6933C21.6047 10.7022 20.8112 10.9698 16.9927 12.5099Z" fill="#1E1E47"/>
</svg>
