<svg width="27" height="25" viewBox="0 0 27 25" fill="none" xmlns="http://www.w3.org/2000/svg">
<path d="M26.6432 18.4339C26.5397 17.8243 26.3229 17.2779 26.0123 16.7897L26.0246 16.8111C25.8587 16.5567 25.5841 16.377 25.2629 16.3278L25.2568 16.327L17.3866 15.1587C17.3374 15.1513 17.2813 15.148 17.2242 15.148C16.9189 15.148 16.6416 15.2612 16.4389 15.4458C15.908 15.9455 15.4789 16.5403 15.1849 17.2016L15.1709 17.2377C12.0944 15.9471 9.68485 13.6942 8.33966 10.8964L8.30543 10.8168C9.05042 10.5289 9.6866 10.1285 10.2201 9.63129C10.4184 9.44587 10.5413 9.18907 10.5413 8.90519C10.5413 8.84858 10.536 8.79279 10.5264 8.73782L10.5272 8.74356L9.27857 1.3841C9.22504 1.07725 9.032 0.819632 8.76348 0.667848L8.75822 0.665387C8.27911 0.397099 7.71839 0.19937 7.12082 0.104197L7.09187 0.100095C6.78562 0.0360999 6.43375 0 6.0731 0C6.05204 0 6.03186 0 6.0108 0H6.01431H6.00554C2.69565 0.0229727 0.0201822 2.52781 0 5.62092V5.62256C0.0131623 16.3188 9.28296 24.9861 20.7219 24.9984C24.0353 24.9803 26.7169 22.4747 26.7371 19.3791V19.3774C26.738 19.3537 26.738 19.3258 26.738 19.297C26.738 18.991 26.7037 18.6924 26.6379 18.4044L26.6432 18.4323V18.4339ZM20.7237 22.9497C10.4948 22.939 2.20601 15.189 2.1946 5.62584C2.21127 3.65758 3.91536 2.0659 6.01958 2.05277C6.02835 2.05277 6.04064 2.05277 6.05117 2.05277C6.26966 2.05277 6.48289 2.07492 6.68822 2.11759L6.66892 2.11431C6.87337 2.1463 7.05326 2.19061 7.22612 2.24804L7.20419 2.24148L8.26595 8.50481C7.81316 8.81576 7.27 9.03892 6.68032 9.13492L6.65751 9.1382C6.13891 9.22599 5.75106 9.64524 5.75106 10.149C5.75106 10.2688 5.773 10.3836 5.81337 10.4903L5.81073 10.4829C7.41127 14.7632 10.9519 18.0737 15.4201 19.5391L15.5298 19.5703C15.636 19.6055 15.7588 19.6252 15.8869 19.6252C16.0923 19.6252 16.2836 19.5735 16.4485 19.4825L16.4433 19.4849C16.7162 19.334 16.9101 19.0813 16.9671 18.7843L16.968 18.7777C17.0742 18.205 17.3129 17.6972 17.6524 17.2631L17.6446 17.273L24.3424 18.2666C24.4021 18.4249 24.4556 18.6152 24.4916 18.8105L24.4951 18.8318C24.5276 18.9771 24.5451 19.1444 24.5451 19.3151C24.5451 19.3348 24.5451 19.3545 24.5442 19.375V19.3717C24.5328 21.3408 22.8296 22.9349 20.7254 22.9481H20.7237V22.9497ZM15.1779 4.53874C15.1534 4.5371 15.1253 4.53546 15.0963 4.53546C14.5172 4.53546 14.046 4.96702 14.0311 5.50524V5.50688C14.0302 5.52329 14.0293 5.54216 14.0293 5.56103C14.0293 6.10745 14.4847 6.55377 15.0603 6.58659H15.063C17.9289 6.73591 20.1928 8.94539 20.1928 11.6488C20.1928 11.817 20.184 11.9827 20.1673 12.1468L20.1691 12.1263C20.1691 12.6924 20.6605 13.1519 21.2659 13.1519C21.8714 13.1519 22.3628 12.6924 22.3628 12.1263C22.3742 11.9819 22.3804 11.8137 22.3804 11.6439C22.3804 7.84845 19.2021 4.74714 15.1981 4.53956L15.1779 4.53874ZM15.0682 2.16928C15.4456 2.18733 24.3021 2.71077 24.3021 12.1263C24.3021 12.6924 24.7935 13.1519 25.3989 13.1519C26.0044 13.1519 26.4958 12.6924 26.4958 12.1263C26.5089 11.9302 26.516 11.7005 26.516 11.4699C26.516 5.46011 21.5309 0.538217 15.2157 0.123888L15.1771 0.122247C15.1525 0.120607 15.1235 0.118966 15.0946 0.118966C14.5137 0.118966 14.0407 0.552985 14.0275 1.09366C14.0267 1.10925 14.0258 1.12812 14.0258 1.14617C14.0258 1.69423 14.4856 2.14138 15.0647 2.16928H15.0682Z" fill="white"/>
</svg>
