<svg width="26" height="26" viewBox="0 0 26 26" fill="none" xmlns="http://www.w3.org/2000/svg">
<g clip-path="url(#clip0_154_36)">
<path d="M20.9727 0H5.02734C2.25469 0 0 2.25469 0 5.02734V10.3391V20.9828C0 23.7555 2.25469 26.0102 5.02734 26.0102H20.9727C23.7453 26.0102 26 23.7555 26 20.9828V10.3289V5.01719C25.9898 2.25469 23.7352 0 20.9727 0ZM22.4148 2.99609H22.9937V3.56484V7.40391L18.5961 7.41406L18.5859 3.00625L22.4148 2.99609ZM9.28281 10.3289C10.1156 9.18125 11.4664 8.41953 12.9898 8.41953C14.5133 8.41953 15.8641 9.17109 16.6969 10.3289C17.2453 11.0805 17.5602 12.0047 17.5602 13C17.5602 15.5187 15.5086 17.5805 12.9797 17.5805C10.4508 17.5805 8.41953 15.5187 8.41953 13C8.41953 12.0047 8.74453 11.0805 9.28281 10.3289ZM23.4609 20.9727C23.4609 22.3437 22.3438 23.4609 20.9727 23.4609H5.02734C3.65625 23.4609 2.53906 22.3437 2.53906 20.9727V10.3289H6.41875C6.08359 11.1516 5.89062 12.0555 5.89062 13C5.89062 16.9203 9.07969 20.1094 13 20.1094C16.9203 20.1094 20.1094 16.9203 20.1094 13C20.1094 12.0555 19.9164 11.1516 19.5813 10.3289H23.4609V20.9727Z" fill="#1E1E47"/>
</g>
<defs>
<clipPath id="clip0_154_36">
<rect width="26" height="26" fill="white"/>
</clipPath>
</defs>
</svg>
